<svg id="Capa_1" data-name="Capa 1" xmlns="http://www.w3.org/2000/svg" xmlns:xlink="http://www.w3.org/1999/xlink" viewBox="0 0 123.03 131.28"><defs><style>.cls-1{fill:none;}.cls-2{clip-path:url(#clip-path);}.cls-3{fill:url(#linear-gradient);}.cls-4{clip-path:url(#clip-path-2);}.cls-5{fill:url(#linear-gradient-2);}.cls-6{clip-path:url(#clip-path-3);}.cls-7{fill:url(#linear-gradient-3);}.cls-8{clip-path:url(#clip-path-4);}.cls-9{fill:url(#linear-gradient-4);}.cls-10{clip-path:url(#clip-path-5);}.cls-11{fill:url(#linear-gradient-5);}</style><clipPath id="clip-path" transform="translate(-1.93 -2.14)"><path class="cls-1" d="M98.38,41.69c14.16,24.07,5.32,54.63-19.74,68.24a53.75,53.75,0,0,1-61.88-7.61c14.89,22,45.2,29.3,69.27,16.23,25.06-13.61,33.9-44.16,19.74-68.25a50.19,50.19,0,0,0-9.12-11.36c.6.89,1.19,1.8,1.73,2.75"/></clipPath><linearGradient id="linear-gradient" x1="-147.43" y1="148.55" x2="-145.86" y2="148.55" gradientTransform="matrix(0, 455.54, 455.54, 0, -67604.26, 66855.87)" gradientUnits="userSpaceOnUse"><stop offset="0" stop-color="#f8be00"/><stop offset="1" stop-color="#e86500"/><stop offset="1" stop-color="#e86500"/></linearGradient><clipPath id="clip-path-2" transform="translate(-1.93 -2.14)"><path class="cls-1" d="M59.58,78.93a15.19,15.19,0,0,1-2.45-.64.88.88,0,0,0-.17-.12c-1.22-.75-2.49-1.42-3.71-2.17a16.81,16.81,0,0,1-3.16-2.5A15.87,15.87,0,0,1,64.34,47.55a17.59,17.59,0,0,1,3.43.88,15.85,15.85,0,0,1,7.65,23.14,13.62,13.62,0,0,1-4.58,4.72c-1,.47-2,.95-3,1.39a15.14,15.14,0,0,1-6.19,1.43,12.91,12.91,0,0,1-2.12-.18m.92-40.7s0,0,0,0l-.16,0H60a.77.77,0,0,0-.9.73c-.25,1.21-.6,2.4-.81,3.62-.14.76-.71.73-1.21.88a.85.85,0,0,1-1-.37c-.78-1-1.64-1.91-2.43-2.88-.36-.46-.71-.39-1.14-.15-1.11.59-2.22,1.18-3.34,1.76a1,1,0,0,1-.31.07l-.65.45c0,.11,0,.22,0,.33a.9.9,0,0,0,0,.42c.16.53.29,1.08.42,1.62l0,.12c.15.59.3,1.18.48,1.77A1.32,1.32,0,0,1,48.67,48c-.48.43-.89.3-1.39.09-1.11-.47-2.25-.91-3.37-1.36-.32-.13-.56-.16-.79.19-.9,1.31-1.83,2.59-2.71,3.91a.76.76,0,0,0,0,.49.83.83,0,0,0,.29.63c.86.9,1.65,1.86,2.53,2.72a1.06,1.06,0,0,1,.21.31.8.8,0,0,1-.07.59c-.22.5-.3,1-1,1.09-1.27.07-2.54.25-3.82.37-.37,0-.61.16-.66.58-.18,1.54-.38,3.07-.59,4.6a.69.69,0,0,0,.09.51v.16a5.45,5.45,0,0,0,.77.37c1,.39,2,.8,3.11,1.11a1.34,1.34,0,0,1,.74.47,1.82,1.82,0,0,1,.12.51c.06.5.07.9-.46,1.23-1.09.67-2.13,1.42-3.21,2.11a.63.63,0,0,0-.3.88c.53,1.4,1,2.8,1.57,4.21a.82.82,0,0,0,.38.49.76.76,0,0,0,.49.2c1.3-.12,2.59-.29,3.87-.5a1.15,1.15,0,0,1,.7,0,1.24,1.24,0,0,1,.25.33c.25.42.63.74.26,1.35-.66,1-1.17,2.18-1.81,3.23A.81.81,0,0,0,44,80.13c1.08.94,2.14,1.9,3.19,2.86a1,1,0,0,0,.33.21.61.61,0,0,0,.88,0c1-.77,2.11-1.46,3.12-2.24a.89.89,0,0,1,.91-.17,2.69,2.69,0,0,0,.38.19.79.79,0,0,1,.53.87c0,1.31,0,2.61-.09,3.91a.66.66,0,0,0,.59.78l.13,0s0,0,.06,0l1.25.31,1.44.38,1.16.29v0l.51.13a.74.74,0,0,0,1-.5c.52-1.11,1.14-2.18,1.65-3.31a.92.92,0,0,1,1-.58c.5,0,1-.09,1.26.56.5,1.13,1.14,2.19,1.66,3.31a.74.74,0,0,0,.68.54h0a1.37,1.37,0,0,0,.38,0q2.07-.54,4.17-1a.69.69,0,0,0,.62-.83c0-1.3,0-2.6,0-3.91,0-.71.52-.77.92-1a1,1,0,0,1,.39-.15.93.93,0,0,1,.35.17c1,.78,2.05,1.44,3,2.21a1,1,0,0,0,.74.26.65.65,0,0,0,.65-.21c.74-.67,1.5-1.3,2.26-2l.89-.79-.1-.09.11-.1a.68.68,0,0,0,.18-1c-.61-1.12-1.2-2.26-1.83-3.37a.78.78,0,0,1,0-1c.33-.39.46-1,1.23-.85,1.26.24,2.54.36,3.8.56a.69.69,0,0,0,.9-.51l0-.08.16.07c.54-1.46,1-2.84,1.56-4.21a.69.69,0,0,0-.33-1c-1.1-.7-2.18-1.42-3.23-2.19a1.11,1.11,0,0,1-.39-.87c.07-.43-.12-1,.6-1.23.43-.14.85-.3,1.28-.46.76-.28,1.51-.56,2.28-.81a1.1,1.1,0,0,0,.36-.18.66.66,0,0,0,.14-.15h0a1,1,0,0,0,.18-.85c-.19-1.4-.37-2.8-.51-4.21a.67.67,0,0,0-.71-.69c-1.27-.13-2.54-.29-3.82-.39-.42,0-.71-.14-.83-.59s-.56-.94,0-1.5c.9-.9,1.72-1.89,2.6-2.82a.69.69,0,0,0,.08-1,.56.56,0,0,0,0-.08,1.69,1.69,0,0,0-.24-.35s0,0,0-.06c-.62-.92-1.25-1.83-1.87-2.74l-.06,0a1.72,1.72,0,0,0-.29-.38A.75.75,0,0,0,80.24,47l-.32.13-.12,0c-1,.41-2,.79-3.06,1.22a.67.67,0,0,1-.19,0l-.17,0a1,1,0,0,1-.76-.36c-.33-.33-.75-.55-.55-1.2.38-1.22.62-2.47,1-3.7a.84.84,0,0,0,0-.54v0a1,1,0,0,0-.08-.14l-.06-.07a1.66,1.66,0,0,0-.31-.21c-1.32-.66-2.63-1.35-3.93-2.06h0a.65.65,0,0,0-1,.18c-.82,1-1.74,1.93-2.54,3-.45.58-.9.26-1.37.2a.89.89,0,0,1-.49-.22l0,0a1.05,1.05,0,0,1-.23-.46h0c-.17-1-.46-1.93-.65-2.9a5.57,5.57,0,0,0-.19-.78s0-.06,0-.09c-.08-.39-.25-.58-.6-.63a1.41,1.41,0,0,0-.71-.08l-.06,0Z"/></clipPath><linearGradient id="linear-gradient-2" x1="-143.04" y1="148.3" x2="-141.46" y2="148.3" gradientTransform="matrix(31.66, 0, 0, -31.66, 4563.77, 4755.85)" gradientUnits="userSpaceOnUse"><stop offset="0" stop-color="#f8be00"/><stop offset="1" stop-color="#e15600"/></linearGradient><clipPath id="clip-path-3" transform="translate(-1.93 -2.14)"><path class="cls-1" d="M59.26,63a2.86,2.86,0,1,1,2.86,2.85A2.86,2.86,0,0,1,59.26,63m-9.13,0a12,12,0,1,0,12-12,12,12,0,0,0-12,12"/></clipPath><linearGradient id="linear-gradient-3" x1="-145.89" y1="146.12" x2="-144.31" y2="146.12" gradientTransform="matrix(56.09, 0, 0, -56.09, 8243.66, 8258.84)" gradientUnits="userSpaceOnUse"><stop offset="0" stop-color="#e0040b"/><stop offset="1" stop-color="#87120b"/></linearGradient><clipPath id="clip-path-4" transform="translate(-1.93 -2.14)"><path class="cls-1" d="M47.81,2.23C35.8,5.64,13.13,15.35,3.42,41.32h0A54,54,0,0,0,1.93,53.94c0,28.67,22.42,51.9,50.08,51.9a48.1,48.1,0,0,0,14.21-2.12c-1.06.08-2.13.12-3.2.12-27.67,0-50.1-23.25-50.1-51.91,0-23.56,15.14-43.44,35.89-49.79-.34,0-.67.06-1,.09"/></clipPath><linearGradient id="linear-gradient-4" x1="-147.28" y1="149.65" x2="-145.71" y2="149.65" gradientTransform="matrix(0, 91.05, 91.05, 0, -13593.61, 13438.93)" xlink:href="#linear-gradient"/><clipPath id="clip-path-5" transform="translate(-1.93 -2.14)"><path class="cls-1" d="M25.37,38.74A49.37,49.37,0,0,0,22,52.7c.33-1,.7-2,1.1-3C33.44,24,63.14,11.35,89.45,21.52A50.23,50.23,0,0,1,121.9,69.4c0-.39.09-.78.13-1.17.18-1.76.29-3.52.32-5.29s0-3.36-.11-5-.26-3.2-.49-4.78-.5-3-.84-4.53-.7-2.85-1.14-4.26-.87-2.69-1.39-4-1-2.52-1.6-3.75-1.15-2.34-1.78-3.49-1.23-2.17-1.9-3.23-1.29-2-2-3-1.33-1.82-2-2.71-1.33-1.64-2-2.44-1.31-1.47-2-2.18-1.25-1.3-1.9-1.92c-.33-.33-.67-.65-1-1a23.77,23.77,0,0,0-5-3.59,52.18,52.18,0,0,0-24.32-6c-20.39,0-39.63,12-47.53,31.68"/></clipPath><linearGradient id="linear-gradient-5" x1="-147.53" y1="148.89" x2="-145.95" y2="148.89" gradientTransform="matrix(-214.88, 0, 0, 214.88, -31444.78, -31955.6)" xlink:href="#linear-gradient"/></defs><g class="cls-2"><rect class="cls-3" x="15.96" y="38.05" width="104.77" height="94.47" transform="translate(-3.41 -0.94) rotate(-1)"/></g><g class="cls-4"><rect class="cls-5" x="35.24" y="36.09" width="49.9" height="49.59"/></g><g class="cls-6"><rect class="cls-7" x="45.73" y="46.6" width="32.76" height="32.76" transform="translate(-25.47 82.94) rotate(-59.86)"/></g><g class="cls-8"><rect class="cls-9" width="64.3" height="103.7"/></g><g class="cls-10"><rect class="cls-11" x="38.99" y="-13.2" width="66.43" height="102.86" transform="translate(29.1 106.65) rotate(-87.63)"/></g></svg>