<svg id="Capa_1" data-name="Capa 1" xmlns="http://www.w3.org/2000/svg" xmlns:xlink="http://www.w3.org/1999/xlink" viewBox="0 0 330.86 69.82"><defs><style>.cls-1{fill:none;}.cls-2{clip-path:url(#clip-path);}.cls-3{fill:url(#linear-gradient);}.cls-4{clip-path:url(#clip-path-2);}.cls-5{fill:url(#linear-gradient-2);}.cls-6{clip-path:url(#clip-path-3);}.cls-7{fill:url(#linear-gradient-3);}.cls-8{clip-path:url(#clip-path-4);}.cls-9{fill:url(#linear-gradient-4);}.cls-10{clip-path:url(#clip-path-5);}.cls-11{fill:url(#linear-gradient-5);}.cls-12{clip-path:url(#clip-path-6);}.cls-13{fill:url(#linear-gradient-6);}.cls-14{clip-path:url(#clip-path-7);}.cls-15{fill:url(#linear-gradient-7);}.cls-16{clip-path:url(#clip-path-8);}.cls-17{fill:url(#linear-gradient-8);}.cls-18{clip-path:url(#clip-path-9);}.cls-19{fill:url(#linear-gradient-9);}.cls-20{clip-path:url(#clip-path-10);}.cls-21{fill:url(#linear-gradient-10);}.cls-22{clip-path:url(#clip-path-11);}.cls-23{fill:url(#linear-gradient-11);}.cls-24{clip-path:url(#clip-path-12);}.cls-25{fill:url(#linear-gradient-12);}.cls-26{clip-path:url(#clip-path-13);}.cls-27{fill:url(#linear-gradient-13);}.cls-28{clip-path:url(#clip-path-14);}.cls-29{fill:url(#linear-gradient-14);}.cls-30{clip-path:url(#clip-path-15);}.cls-31{fill:url(#linear-gradient-15);}.cls-32{clip-path:url(#clip-path-16);}.cls-33{fill:url(#linear-gradient-16);}.cls-34{clip-path:url(#clip-path-17);}.cls-35{fill:url(#linear-gradient-17);}.cls-36{clip-path:url(#clip-path-18);}.cls-37{fill:url(#linear-gradient-18);}.cls-38{clip-path:url(#clip-path-19);}.cls-39{fill:url(#linear-gradient-19);}.cls-40{clip-path:url(#clip-path-20);}.cls-41{fill:url(#linear-gradient-20);}.cls-42{clip-path:url(#clip-path-21);}.cls-43{fill:url(#linear-gradient-21);}.cls-44{clip-path:url(#clip-path-22);}.cls-45{fill:url(#linear-gradient-22);}.cls-46{clip-path:url(#clip-path-23);}.cls-47{fill:url(#linear-gradient-23);}.cls-48{clip-path:url(#clip-path-24);}.cls-49{fill:url(#linear-gradient-24);}.cls-50{clip-path:url(#clip-path-25);}.cls-51{fill:url(#linear-gradient-25);}.cls-52{clip-path:url(#clip-path-26);}.cls-53{fill:url(#linear-gradient-26);}.cls-54{clip-path:url(#clip-path-27);}.cls-55{fill:url(#linear-gradient-27);}.cls-56{clip-path:url(#clip-path-28);}.cls-57{fill:url(#linear-gradient-28);}.cls-58{clip-path:url(#clip-path-29);}.cls-59{fill:url(#linear-gradient-29);}.cls-60{clip-path:url(#clip-path-30);}.cls-61{fill:url(#linear-gradient-30);}.cls-62{clip-path:url(#clip-path-31);}.cls-63{fill:url(#linear-gradient-31);}.cls-64{clip-path:url(#clip-path-32);}.cls-65{fill:url(#linear-gradient-32);}.cls-66{clip-path:url(#clip-path-33);}.cls-67{fill:url(#linear-gradient-33);}.cls-68{clip-path:url(#clip-path-34);}.cls-69{fill:url(#linear-gradient-34);}.cls-70{clip-path:url(#clip-path-35);}.cls-71{fill:url(#linear-gradient-35);}.cls-72{clip-path:url(#clip-path-36);}.cls-73{fill:url(#linear-gradient-36);}.cls-74{clip-path:url(#clip-path-37);}.cls-75{fill:url(#linear-gradient-37);}</style><clipPath id="clip-path" transform="translate(-53.25 -48.18)"><path class="cls-1" d="M98.27,72.64c6.61,11.24,2.48,25.5-9.21,31.85a25.09,25.09,0,0,1-28.89-3.55c7,10.25,21.1,13.68,32.34,7.58,11.69-6.36,15.82-20.62,9.21-31.86a23.28,23.28,0,0,0-4.26-5.3c.28.41.55.84.81,1.28"/></clipPath><linearGradient id="linear-gradient" x1="0.13" y1="169.33" x2="0.86" y2="169.33" gradientTransform="matrix(0, 455.54, 455.54, 0, -77053.02, -149.54)" gradientUnits="userSpaceOnUse"><stop offset="0" stop-color="#f8be00"/><stop offset="1" stop-color="#e86500"/><stop offset="1" stop-color="#e86500"/></linearGradient><clipPath id="clip-path-2" transform="translate(-53.25 -48.18)"><path class="cls-1" d="M80.16,90a6.27,6.27,0,0,1-1.15-.3l-.07,0c-.58-.35-1.17-.66-1.74-1a7.59,7.59,0,0,1-1.47-1.16,7.41,7.41,0,0,1,6.65-12.12,8.71,8.71,0,0,1,1.6.41,7.4,7.4,0,0,1,3.57,10.81,6.44,6.44,0,0,1-2.14,2.2L84,89.44a7.18,7.18,0,0,1-2.89.67,5.52,5.52,0,0,1-1-.09m.43-19,0,0h-.2c-.26,0-.36.1-.42.34-.12.56-.28,1.12-.38,1.69-.06.35-.33.34-.56.41a.4.4,0,0,1-.48-.17c-.36-.46-.76-.89-1.13-1.35-.17-.21-.33-.18-.54-.07-.51.28-1,.55-1.55.82a.37.37,0,0,1-.15,0l-.3.21a.77.77,0,0,0,0,.15.46.46,0,0,0,0,.2c.08.25.14.5.2.75,0,0,0,0,0,.06.07.28.14.55.23.82a.62.62,0,0,1-.26.64c-.22.2-.41.14-.64,0L72.84,75c-.15-.06-.26-.07-.37.09-.42.61-.85,1.21-1.26,1.82a.29.29,0,0,0,0,.23.37.37,0,0,0,.13.3c.4.42.77.87,1.18,1.27a.53.53,0,0,1,.1.14.41.41,0,0,1,0,.28c-.11.23-.14.48-.49.5-.6,0-1.19.12-1.78.18-.18,0-.29.07-.31.27-.09.72-.18,1.43-.28,2.15a.36.36,0,0,0,0,.24v.07a2.92,2.92,0,0,0,.36.17c.48.18,1,.38,1.45.52a.61.61,0,0,1,.35.22.84.84,0,0,1,.06.24c0,.23,0,.42-.22.57-.51.31-1,.67-1.5,1a.3.3,0,0,0-.14.41c.25.65.49,1.31.73,2a.4.4,0,0,0,.18.23.42.42,0,0,0,.23.1c.61-.06,1.21-.14,1.81-.24a.48.48,0,0,1,.32,0,.44.44,0,0,1,.12.15c.12.2.3.35.12.63-.31.49-.54,1-.84,1.51a.36.36,0,0,0,.1.55l1.49,1.34a.44.44,0,0,0,.15.1.31.31,0,0,0,.42,0c.47-.36,1-.69,1.45-1a.4.4,0,0,1,.42-.08L77,91a.38.38,0,0,1,.25.41c0,.61,0,1.21,0,1.82a.3.3,0,0,0,.27.37h.06l0,0,.58.14.68.18.54.14v0l.24.06c.23.06.35,0,.46-.23.24-.52.53-1,.77-1.54a.44.44,0,0,1,.49-.28c.23,0,.45,0,.58.26.23.53.54,1,.78,1.55.08.18.18.25.32.25h0l.18,0c.65-.17,1.29-.33,2-.48a.33.33,0,0,0,.29-.38c0-.61,0-1.22,0-1.83,0-.33.24-.36.43-.48a.45.45,0,0,1,.18-.07.34.34,0,0,1,.16.08c.46.36,1,.67,1.42,1a.44.44,0,0,0,.35.12.3.3,0,0,0,.3-.1l1-.91.42-.37,0,0,.06,0a.32.32,0,0,0,.08-.46c-.29-.53-.56-1.06-.85-1.58-.1-.17-.14-.31,0-.47s.22-.46.58-.4c.59.11,1.18.17,1.77.26a.32.32,0,0,0,.42-.24l0,0,.07,0c.25-.68.48-1.33.73-2a.32.32,0,0,0-.15-.45c-.52-.33-1-.67-1.51-1a.47.47,0,0,1-.18-.4c0-.2-.06-.47.28-.58a5.89,5.89,0,0,0,.59-.21l1.07-.38a.67.67,0,0,0,.17-.08l.06-.07h0a.48.48,0,0,0,.09-.4c-.1-.65-.18-1.31-.24-2a.33.33,0,0,0-.33-.33c-.6-.06-1.19-.13-1.79-.18-.19,0-.33-.07-.38-.27s-.27-.44,0-.7c.43-.42.81-.88,1.22-1.32a.33.33,0,0,0,0-.48l0,0a.66.66,0,0,0-.11-.16v0l-.87-1.28s0,0,0,0a.61.61,0,0,0-.14-.17.35.35,0,0,0-.5-.14l-.15.06-.05,0c-.48.2-1,.37-1.43.57l-.09,0H88a.45.45,0,0,1-.36-.16c-.15-.16-.35-.26-.25-.56.18-.57.29-1.16.46-1.73a.43.43,0,0,0,0-.25h0l0-.07s0,0,0,0a1,1,0,0,0-.15-.1q-.92-.47-1.83-1h0a.3.3,0,0,0-.44.08c-.39.47-.82.9-1.19,1.38-.21.27-.42.12-.64.09a.44.44,0,0,1-.23-.1,0,0,0,0,0,0,0,.51.51,0,0,1-.1-.21h0c-.08-.46-.22-.9-.31-1.35a2,2,0,0,0-.09-.37v0a.33.33,0,0,0-.28-.3.88.88,0,0,0-.34,0,0,0,0,0,1,0,0Z"/></clipPath><linearGradient id="linear-gradient-2" x1="0.48" y1="169.41" x2="1.22" y2="169.41" gradientTransform="matrix(31.66, 0, 0, -31.66, 1.19, 5397.79)" gradientUnits="userSpaceOnUse"><stop offset="0" stop-color="#f8be00"/><stop offset="1" stop-color="#e15600"/></linearGradient><clipPath id="clip-path-3" transform="translate(-53.25 -48.18)"><path class="cls-1" d="M80,82.58a1.33,1.33,0,1,1,1.33,1.33A1.33,1.33,0,0,1,80,82.58m-4.26,0A5.59,5.59,0,1,0,81.34,77a5.59,5.59,0,0,0-5.59,5.6"/></clipPath><linearGradient id="linear-gradient-3" x1="0.14" y1="169.17" x2="0.88" y2="169.17" gradientTransform="matrix(56.09, 0, 0, -56.09, 72.94, 9571.34)" gradientUnits="userSpaceOnUse"><stop offset="0" stop-color="#e0040b"/><stop offset="1" stop-color="#87120b"/></linearGradient><clipPath id="clip-path-4" transform="translate(-53.25 -48.18)"><path class="cls-1" d="M74.66,54.22c-5.6,1.59-16.19,6.12-20.72,18.25h0a25.33,25.33,0,0,0-.69,5.89c0,13.38,10.46,24.23,23.37,24.23a22.8,22.8,0,0,0,6.64-1c-.5,0-1,.05-1.5.05-12.91,0-23.38-10.85-23.38-24.23A24.14,24.14,0,0,1,75.13,54.18l-.47,0"/></clipPath><linearGradient id="linear-gradient-4" x1="0.03" y1="169.47" x2="0.76" y2="169.47" gradientTransform="matrix(0, 91.05, 91.05, 0, -15415.75, 16.77)" xlink:href="#linear-gradient"/><clipPath id="clip-path-5" transform="translate(-53.25 -48.18)"><path class="cls-1" d="M64.19,71.26a23.15,23.15,0,0,0-1.57,6.52c.16-.47.32-.94.51-1.41a24,24,0,0,1,31-13.14,23.45,23.45,0,0,1,15.15,22.34l.06-.54c.08-.82.13-1.65.15-2.47s0-1.57,0-2.35-.13-1.49-.24-2.23-.23-1.42-.39-2.11-.32-1.34-.53-2-.41-1.26-.64-1.87-.48-1.18-.75-1.76-.54-1.09-.83-1.62-.58-1-.89-1.51-.6-.93-.93-1.39-.62-.85-.94-1.26-.62-.77-1-1.14-.61-.69-.92-1-.59-.6-.89-.9L100,61a11,11,0,0,0-2.32-1.67,24.57,24.57,0,0,0-2.56-1.17,24.3,24.3,0,0,0-8.79-1.65A23.84,23.84,0,0,0,64.19,71.26"/></clipPath><linearGradient id="linear-gradient-5" x1="0.15" y1="169.34" x2="0.88" y2="169.34" gradientTransform="matrix(-214.88, 0, 0, 214.88, 203.45, -36316.53)" xlink:href="#linear-gradient"/><clipPath id="clip-path-6" transform="translate(-53.25 -48.18)"><polygon class="cls-1" points="144.1 106.36 147.12 93.83 150.34 93.83 150.34 112.74 147.2 112.74 147.2 104.04 145.28 112.74 142.99 112.74 141 103.98 141 112.74 137.83 112.74 137.83 93.83 141.05 93.83 144.1 106.36"/></clipPath><linearGradient id="linear-gradient-6" x1="-0.03" y1="169.29" x2="0.97" y2="169.29" gradientTransform="matrix(275.03, 0, 0, -275.03, 87.17, 46663.78)" gradientUnits="userSpaceOnUse"><stop offset="0" stop-color="#f19800"/><stop offset="0.22" stop-color="#f19800"/><stop offset="0.26" stop-color="#f09300"/><stop offset="0.76" stop-color="#e35901"/><stop offset="1" stop-color="#de4201"/></linearGradient><clipPath id="clip-path-7" transform="translate(-53.25 -48.18)"><path class="cls-1" d="M161.94,106l.93,6.78h-3.29l-.54-3.93h-2.4l-.55,3.93h-3.28l.93-6.75,2-12.16H160Zm-3.32-.17-.79-5.73-.78,5.73Z"/></clipPath><linearGradient id="linear-gradient-7" x1="-0.03" y1="169.29" x2="0.97" y2="169.29" gradientTransform="matrix(273.74, 0, 0, -273.74, 88.37, 46445.08)" xlink:href="#linear-gradient-6"/><clipPath id="clip-path-8" transform="translate(-53.25 -48.18)"><polygon class="cls-1" points="165.34 93.83 168.56 93.83 170.73 103.14 170.73 93.83 173.79 93.83 173.79 112.74 170.57 112.74 168.49 103.68 168.49 112.74 165.34 112.74 165.34 93.83"/></clipPath><linearGradient id="linear-gradient-8" x1="-0.03" y1="169.29" x2="0.97" y2="169.29" gradientTransform="matrix(274.15, 0, 0, -274.15, 89.23, 46512.78)" xlink:href="#linear-gradient-6"/><clipPath id="clip-path-9" transform="translate(-53.25 -48.18)"><polygon class="cls-1" points="184.81 93.83 184.81 96.84 182.21 96.84 182.21 112.74 178.95 112.74 178.95 96.84 176.35 96.84 176.35 93.83 184.81 93.83"/></clipPath><linearGradient id="linear-gradient-9" x1="-0.03" y1="169.29" x2="0.97" y2="169.29" gradientTransform="matrix(273.25, 0, 0, -273.25, 90.47, 46361.7)" xlink:href="#linear-gradient-6"/><clipPath id="clip-path-10" transform="translate(-53.25 -48.18)"><polygon class="cls-1" points="187.37 93.83 195.05 93.83 195.05 96.84 190.63 96.84 190.63 101.77 194.43 101.77 194.43 104.8 190.63 104.8 190.63 109.73 195.05 109.73 195.05 112.74 187.37 112.74 187.37 93.83"/></clipPath><linearGradient id="linear-gradient-10" x1="-0.03" y1="169.29" x2="0.97" y2="169.29" gradientTransform="matrix(273.92, 0, 0, -273.92, 91.26, 46474.7)" xlink:href="#linear-gradient-6"/><clipPath id="clip-path-11" transform="translate(-53.25 -48.18)"><polygon class="cls-1" points="197.91 93.83 201.13 93.83 203.3 103.14 203.3 93.83 206.36 93.83 206.36 112.74 203.14 112.74 201.06 103.68 201.06 112.74 197.91 112.74 197.91 93.83"/></clipPath><linearGradient id="linear-gradient-11" x1="-0.03" y1="169.29" x2="0.97" y2="169.29" gradientTransform="matrix(274.14, 0.01, 0.01, -274.14, 89.39, 46512.91)" xlink:href="#linear-gradient-6"/><clipPath id="clip-path-12" transform="translate(-53.25 -48.18)"><rect class="cls-1" x="209.76" y="93.83" width="3.26" height="18.91"/></clipPath><linearGradient id="linear-gradient-12" x1="-0.03" y1="169.29" x2="0.97" y2="169.29" gradientTransform="matrix(271.84, 0, 0, -271.84, 92.03, 46122.52)" xlink:href="#linear-gradient-6"/><clipPath id="clip-path-13" transform="translate(-53.25 -48.18)"><polygon class="cls-1" points="222.69 106.36 225.71 93.83 228.93 93.83 228.93 112.74 225.79 112.74 225.79 104.04 223.87 112.74 221.58 112.74 219.59 103.98 219.59 112.74 216.42 112.74 216.42 93.83 219.64 93.83 222.69 106.36"/></clipPath><linearGradient id="linear-gradient-13" x1="-0.03" y1="169.29" x2="0.97" y2="169.29" gradientTransform="matrix(275.03, 0, 0, -275.03, 90.8, 46663.47)" xlink:href="#linear-gradient-6"/><clipPath id="clip-path-14" transform="translate(-53.25 -48.18)"><rect class="cls-1" x="232.33" y="93.83" width="3.26" height="18.91"/></clipPath><linearGradient id="linear-gradient-14" x1="-0.03" y1="169.29" x2="0.97" y2="169.29" gradientTransform="matrix(271.84, 0, 0, -271.84, 94.09, 46123.31)" xlink:href="#linear-gradient-6"/><clipPath id="clip-path-15" transform="translate(-53.25 -48.18)"><polygon class="cls-1" points="238.99 93.83 246.67 93.83 246.67 96.84 242.25 96.84 242.25 101.77 246.05 101.77 246.05 104.8 242.25 104.8 242.25 109.73 246.67 109.73 246.67 112.74 238.99 112.74 238.99 93.83"/></clipPath><linearGradient id="linear-gradient-15" x1="-0.03" y1="169.29" x2="0.97" y2="169.29" gradientTransform="matrix(273.92, 0, 0, -273.92, 94.11, 46474.65)" xlink:href="#linear-gradient-6"/><clipPath id="clip-path-16" transform="translate(-53.25 -48.18)"><polygon class="cls-1" points="249.53 93.83 252.75 93.83 254.92 103.14 254.92 93.83 257.98 93.83 257.98 112.74 254.76 112.74 252.68 103.68 252.68 112.74 249.53 112.74 249.53 93.83"/></clipPath><linearGradient id="linear-gradient-16" x1="-0.03" y1="169.29" x2="0.97" y2="169.29" gradientTransform="matrix(274.15, 0.01, 0.01, -274.15, 91.49, 46513.42)" xlink:href="#linear-gradient-6"/><clipPath id="clip-path-17" transform="translate(-53.25 -48.18)"><polygon class="cls-1" points="269 93.83 269 96.84 266.4 96.84 266.4 112.74 263.14 112.74 263.14 96.84 260.55 96.84 260.55 93.83 269 93.83"/></clipPath><linearGradient id="linear-gradient-17" x1="-0.03" y1="169.29" x2="0.97" y2="169.29" gradientTransform="matrix(273.25, 0, 0, -273.25, 95.38, 46361.47)" xlink:href="#linear-gradient-6"/><clipPath id="clip-path-18" transform="translate(-53.25 -48.18)"><path class="cls-1" d="M274.63,109V97.62c0-.71.31-1.07.95-1.07h0c.64,0,1,.36,1,1.07V109c0,.71-.33,1.07-1,1.07s-1-.36-1-1.07m-3.26-11.33V109c0,2.73,1.4,4.09,4.22,4.09s4.23-1.37,4.23-4.09V97.62q0-4.08-4.23-4.08c-2.82,0-4.22,1.36-4.22,4.08"/></clipPath><linearGradient id="linear-gradient-18" x1="-0.03" y1="169.29" x2="0.97" y2="169.29" gradientTransform="matrix(274.64, 0, 0, -274.64, 93.98, 46596.5)" xlink:href="#linear-gradient-6"/><clipPath id="clip-path-19" transform="translate(-53.25 -48.18)"><polygon class="cls-1" points="288.75 93.83 288.75 112.74 296.43 112.74 296.43 109.73 292.01 109.73 292.01 104.8 295.81 104.8 295.81 101.77 292.01 101.77 292.01 96.84 296.43 96.84 296.43 93.83 288.75 93.83"/></clipPath><linearGradient id="linear-gradient-19" x1="-0.03" y1="169.29" x2="0.97" y2="169.29" gradientTransform="matrix(273.92, 0, 0, -273.92, 96.39, 46474.05)" xlink:href="#linear-gradient-6"/><clipPath id="clip-path-20" transform="translate(-53.25 -48.18)"><polygon class="cls-1" points="299.29 93.83 299.29 112.74 306.96 112.74 306.96 109.73 302.55 109.73 302.55 93.83 299.29 93.83"/></clipPath><linearGradient id="linear-gradient-20" x1="-0.03" y1="169.29" x2="0.97" y2="169.29" gradientTransform="matrix(271.84, 0, 0, -271.84, 98.54, 46123.6)" xlink:href="#linear-gradient-6"/><clipPath id="clip-path-21" transform="translate(-53.25 -48.18)"><path class="cls-1" d="M309.43,93.83v18.91h7.68v-3h-4.42V104.8h3.81v-3h-3.81V96.84h4.42v-3Zm4.8-3.11-3.11,2.77h2.8l2.84-1.78v-1Z"/></clipPath><linearGradient id="linear-gradient-21" x1="-0.03" y1="169.29" x2="0.97" y2="169.29" gradientTransform="matrix(273.43, 0, 0, -273.43, 97.42, 46391.77)" xlink:href="#linear-gradient-6"/><clipPath id="clip-path-22" transform="translate(-53.25 -48.18)"><path class="cls-1" d="M319.29,97.62V109c0,2.73,1.4,4.09,4.22,4.09s4.23-1.37,4.23-4.09v-2.68h-3.26V109c0,.71-.33,1.07-1,1.07s-1-.36-1-1.07V97.62c0-.71.32-1.07,1-1.07h0c.64,0,1,.36,1,1.07v2.68h3.26V97.62q0-4.08-4.23-4.08c-2.82,0-4.22,1.36-4.22,4.08"/></clipPath><linearGradient id="linear-gradient-22" x1="-0.03" y1="169.29" x2="0.97" y2="169.29" gradientTransform="matrix(274.63, 0, 0, -274.63, 96.64, 46595.58)" xlink:href="#linear-gradient-6"/><clipPath id="clip-path-23" transform="translate(-53.25 -48.18)"><polygon class="cls-1" points="330.01 93.83 330.01 96.84 332.6 96.84 332.6 112.74 335.86 112.74 335.86 96.84 338.46 96.84 338.46 93.83 330.01 93.83"/></clipPath><linearGradient id="linear-gradient-23" x1="-0.03" y1="169.29" x2="0.97" y2="169.29" gradientTransform="matrix(273.25, 0, 0, -273.25, 98.81, 46360.88)" xlink:href="#linear-gradient-6"/><clipPath id="clip-path-24" transform="translate(-53.25 -48.18)"><path class="cls-1" d="M344.29,96.84H345q1,0,1,1.08v2.79a1,1,0,0,1-.61,1,3.16,3.16,0,0,1-.69,0h-.39Zm-3.26-3v18.91h3.26v-8.13h.17l2.24,8.13h3.55L347.11,104a3.15,3.15,0,0,0,2.13-3.32V97.92q0-4.08-3.93-4.09Z"/></clipPath><linearGradient id="linear-gradient-24" x1="-0.02" y1="169.29" x2="0.97" y2="169.29" gradientTransform="matrix(274.34, 0, 0, -274.34, 98.88, 46546)" xlink:href="#linear-gradient-6"/><clipPath id="clip-path-25" transform="translate(-53.25 -48.18)"><rect class="cls-1" x="352.67" y="93.83" width="3.26" height="18.91"/></clipPath><linearGradient id="linear-gradient-25" x1="-0.03" y1="169.29" x2="0.97" y2="169.29" gradientTransform="matrix(271.83, 0, 0, -271.83, 100.91, 46121.83)" xlink:href="#linear-gradient-6"/><clipPath id="clip-path-26" transform="translate(-53.25 -48.18)"><path class="cls-1" d="M359.13,97.62V109q0,4.1,4.22,4.09c2.82,0,4.23-1.37,4.23-4.09v-2.68h-3.26V109c0,.71-.32,1.07-1,1.07s-1-.36-1-1.07V97.62c0-.71.32-1.07.95-1.07h0c.64,0,1,.36,1,1.07v2.68h3.26V97.62q0-4.08-4.23-4.08t-4.22,4.08"/></clipPath><linearGradient id="linear-gradient-26" x1="-0.03" y1="169.29" x2="0.97" y2="169.29" gradientTransform="matrix(274.63, 0, 0, -274.63, 98.75, 46595.56)" xlink:href="#linear-gradient-6"/><clipPath id="clip-path-27" transform="translate(-53.25 -48.18)"><path class="cls-1" d="M373.71,109V97.62c0-.71.31-1.07,1-1.07h0c.65,0,1,.36,1,1.07V109c0,.71-.33,1.07-1,1.07s-1-.36-1-1.07m-3.27-11.33V109q0,4.1,4.23,4.09c2.82,0,4.23-1.37,4.23-4.09V97.62q0-4.08-4.23-4.08t-4.23,4.08"/></clipPath><linearGradient id="linear-gradient-27" x1="-0.03" y1="169.29" x2="0.97" y2="169.29" gradientTransform="matrix(274.63, 0.01, 0.01, -274.63, 97.32, 46595.99)" xlink:href="#linear-gradient-6"/><clipPath id="clip-path-28" transform="translate(-53.25 -48.18)"><polygon class="cls-1" points="121.27 58.29 121.27 89.32 134.31 89.32 134.31 84.37 126.81 84.37 126.81 76.28 133.26 76.28 133.26 71.33 126.81 71.33 126.81 63.24 134.31 63.24 134.31 58.29 121.27 58.29"/></clipPath><linearGradient id="linear-gradient-28" x1="-0.05" y1="169.3" x2="0.95" y2="169.3" gradientTransform="matrix(177.55, 0, 0, -177.55, 179.16, 30132.33)" gradientUnits="userSpaceOnUse"><stop offset="0" stop-color="#e0040b"/><stop offset="0.21" stop-color="#b21012"/><stop offset="0.34" stop-color="#a11311"/><stop offset="0.41" stop-color="#87120b"/><stop offset="0.7" stop-color="#740d03"/><stop offset="0.75" stop-color="#740d03"/><stop offset="1" stop-color="#740d03"/></linearGradient><clipPath id="clip-path-29" transform="translate(-53.25 -48.18)"><polygon class="cls-1" points="146.96 58.29 146.96 73.57 143.27 58.29 137.8 58.29 137.8 89.32 143.16 89.32 143.16 74.46 146.68 89.32 152.15 89.32 152.15 58.29 146.96 58.29"/></clipPath><linearGradient id="linear-gradient-29" x1="-0.05" y1="169.3" x2="0.95" y2="169.3" gradientTransform="matrix(177.55, 0, 0, -177.55, 182.39, 30132.45)" xlink:href="#linear-gradient-28"/><clipPath id="clip-path-30" transform="translate(-53.25 -48.18)"><polygon class="cls-1" points="156.47 58.29 156.47 89.32 169.51 89.32 169.51 84.37 162.01 84.37 162.01 76.28 168.47 76.28 168.47 71.33 162.01 71.33 162.01 63.24 169.51 63.24 169.51 58.29 156.47 58.29"/></clipPath><linearGradient id="linear-gradient-30" x1="-0.05" y1="169.3" x2="0.95" y2="169.3" gradientTransform="matrix(177.55, 0, 0, -177.55, 185.8, 30132.31)" xlink:href="#linear-gradient-28"/><clipPath id="clip-path-31" transform="translate(-53.25 -48.18)"><path class="cls-1" d="M178.54,63.24h1.25c1.08,0,1.63.59,1.63,1.76v4.57a1.58,1.58,0,0,1-1,1.66,4,4,0,0,1-1.16.1h-.67Zm-5.54-5v31h5.54V76h.3l3.79,13.34h6L183.33,75c2.42-.83,3.63-2.64,3.63-5.46V65q0-6.69-6.69-6.71Z"/></clipPath><linearGradient id="linear-gradient-31" x1="-0.05" y1="169.3" x2="0.95" y2="169.3" gradientTransform="matrix(177.55, 0, 0, -177.55, 189.21, 30132.39)" xlink:href="#linear-gradient-28"/><clipPath id="clip-path-32" transform="translate(-53.25 -48.18)"><path class="cls-1" d="M191,64.51V83.1q0,6.72,7.17,6.71t7.18-6.71V71.33h-7v5h1.43V83.1c0,1.17-.55,1.76-1.64,1.76s-1.63-.59-1.63-1.76V64.51c0-1.17.53-1.75,1.61-1.75h0c1.09,0,1.63.59,1.63,1.75v4.4h5.54v-4.4q0-6.71-7.18-6.7T191,64.51"/></clipPath><linearGradient id="linear-gradient-32" x1="-0.05" y1="169.3" x2="0.95" y2="169.3" gradientTransform="matrix(177.55, 0, 0, -177.55, 191.9, 30132.41)" xlink:href="#linear-gradient-28"/><clipPath id="clip-path-33" transform="translate(-53.25 -48.18)"><path class="cls-1" d="M209.92,89.32h5.54v-31h-5.54Zm4.88-36.64-5.29,4.54h4.76l4.82-2.91V52.68Z"/></clipPath><linearGradient id="linear-gradient-33" x1="-0.05" y1="169.3" x2="0.95" y2="169.3" gradientTransform="matrix(177.55, 0, 0, -177.55, 193.61, 30130.07)" xlink:href="#linear-gradient-28"/><clipPath id="clip-path-34" transform="translate(-53.25 -48.18)"><path class="cls-1" d="M225.57,68.52l1.33,9.39h-2.66ZM222,58.29l-3.38,19.95L217,89.32h5.57l.93-6.45h4.08l.91,6.45h5.59l-1.58-11.13-3.36-19.9Z"/></clipPath><linearGradient id="linear-gradient-34" x1="-0.05" y1="169.31" x2="0.95" y2="169.31" gradientTransform="matrix(177.55, 0, 0, -177.55, 197.33, 30133.85)" xlink:href="#linear-gradient-28"/><clipPath id="clip-path-35" transform="translate(-53.25 -48.18)"><path class="cls-1" d="M122.74,107.54v-.44a5.14,5.14,0,0,1,.69-2.52h0l2.7,4.51a2,2,0,0,1-1.58.67c-1.1,0-1.86-.67-1.86-2.22M123,97.42v-.14c0-1,.46-1.58,1.23-1.58s1.22.57,1.22,1.53v.14c0,.88-.36,1.55-1.5,2.89h-.06a6.36,6.36,0,0,1-.89-2.84m-2.6-.19v.16a9.11,9.11,0,0,0,1.61,4.86,7.15,7.15,0,0,0-2,4.88v.67c0,3,1.73,4.59,4.43,4.59a4.08,4.08,0,0,0,3.06-1.13l.51.86h3.21l-2.19-3.46a7.85,7.85,0,0,0,.41-2.79v-3.08l-2.35-.14v2.76h-.05l-1.83-3c2.08-2.2,2.75-3.35,2.75-5.13v-.13c0-2.55-1.33-4.08-3.8-4.08s-3.8,1.45-3.8,4.16"/></clipPath><linearGradient id="linear-gradient-35" x1="-0.08" y1="169.32" x2="0.92" y2="169.32" gradientTransform="matrix(104.56, 0, 0, -104.56, 121.21, 17806.16)" gradientUnits="userSpaceOnUse"><stop offset="0" stop-color="#e0040b"/><stop offset="0.7" stop-color="#740d03"/><stop offset="1" stop-color="#740d03"/></linearGradient><clipPath id="clip-path-36" transform="translate(-53.25 -48.18)"><path class="cls-1" d="M237.16,60.58a1.91,1.91,0,0,1,.46,0c.5,0,.82.22.82.7s-.32.71-.83.71h-.45Zm-.75-.55v4.3h.75V62.54h.38c.43,0,.63.19.74.76a7,7,0,0,0,.28,1h.78a8.76,8.76,0,0,1-.33-1.22,1.11,1.11,0,0,0-.57-.84v0a1.17,1.17,0,0,0,.75-1.09,1.14,1.14,0,0,0-.36-.88,1.88,1.88,0,0,0-1.28-.35,5.87,5.87,0,0,0-1.14.1"/></clipPath><linearGradient id="linear-gradient-36" x1="-0.05" y1="169.3" x2="0.95" y2="169.3" gradientTransform="matrix(177.55, 0, 0, -177.55, 192.61, 30120.68)" xlink:href="#linear-gradient-28"/><clipPath id="clip-path-37" transform="translate(-53.25 -48.18)"><path class="cls-1" d="M234.87,62.13a3,3,0,1,1,3,3,3,3,0,0,1-3-3m-.75,0a3.76,3.76,0,1,0,3.75-3.75,3.76,3.76,0,0,0-3.75,3.75"/></clipPath><linearGradient id="linear-gradient-37" x1="-0.05" y1="169.3" x2="0.95" y2="169.3" gradientTransform="matrix(177.55, 0, 0, -177.55, 193.43, 30120.66)" xlink:href="#linear-gradient-28"/></defs><g class="cls-2"><rect class="cls-3" x="59.8" y="70.94" width="48.9" height="44.1" transform="translate(-54.86 -46.7) rotate(-1)"/></g><g class="cls-4"><rect class="cls-5" x="16.45" y="22.84" width="23.29" height="23.15"/></g><g class="cls-6"><rect class="cls-7" x="73.69" y="74.93" width="15.29" height="15.29" transform="translate(-84.16 63.28) rotate(-59.86)"/></g><g class="cls-8"><rect class="cls-9" y="6" width="30.01" height="48.41"/></g><g class="cls-10"><rect class="cls-11" x="70.54" y="47.02" width="31.01" height="48.01" transform="translate(-41.71 105.89) rotate(-87.63)"/></g><g class="cls-12"><rect class="cls-13" x="135.45" y="92.46" width="17.28" height="21.64" transform="translate(-76.27 -4.07) rotate(-16.14)"/></g><g class="cls-14"><rect class="cls-15" x="150.38" y="92.8" width="14.92" height="20.96" transform="translate(-75.73 -0.25) rotate(-16.14)"/></g><g class="cls-16"><rect class="cls-17" x="162.87" y="93.03" width="13.37" height="20.51" transform="translate(-75.27 3.01) rotate(-16.13)"/></g><g class="cls-18"><rect class="cls-19" x="173.89" y="93.03" width="13.38" height="20.51" transform="translate(-74.83 6.07) rotate(-16.13)"/></g><g class="cls-20"><rect class="cls-21" x="184.89" y="93.13" width="12.63" height="20.3" transform="translate(-74.42 9.02) rotate(-16.13)"/></g><g class="cls-22"><rect class="cls-23" x="195.45" y="93.03" width="13.37" height="20.51" transform="translate(-73.99 12.07) rotate(-16.14)"/></g><g class="cls-24"><rect class="cls-25" x="207.19" y="93.75" width="8.39" height="19.07" transform="translate(-73.62 14.63) rotate(-16.13)"/></g><g class="cls-26"><rect class="cls-27" x="214.04" y="92.46" width="17.28" height="21.64" transform="translate(-73.18 17.77) rotate(-16.14)"/></g><g class="cls-28"><rect class="cls-29" x="229.77" y="93.75" width="8.39" height="19.07" transform="translate(-72.73 20.91) rotate(-16.13)"/></g><g class="cls-30"><rect class="cls-31" x="236.51" y="93.13" width="12.63" height="20.3" transform="translate(-72.38 23.37) rotate(-16.13)"/></g><g class="cls-32"><rect class="cls-33" x="247.07" y="93.03" width="13.37" height="20.51" transform="translate(-71.95 26.42) rotate(-16.14)"/></g><g class="cls-34"><rect class="cls-35" x="258.09" y="93.03" width="13.37" height="20.51" transform="translate(-71.52 29.47) rotate(-16.14)"/></g><g class="cls-36"><rect class="cls-37" x="268.82" y="92.75" width="13.54" height="21.09" transform="translate(-71.09 32.48) rotate(-16.14)"/></g><g class="cls-38"><rect class="cls-39" x="286.27" y="93.13" width="12.63" height="20.3" transform="translate(-70.42 37.19) rotate(-16.13)"/></g><g class="cls-40"><rect class="cls-41" x="296.81" y="93.13" width="12.63" height="20.3" transform="translate(-70.01 40.12) rotate(-16.13)"/></g><g class="cls-42"><rect class="cls-43" x="306.53" y="90.09" width="13.49" height="23.28" transform="translate(-69.18 42.88) rotate(-16.13)"/></g><g class="cls-44"><rect class="cls-45" x="316.74" y="92.75" width="13.54" height="21.09" transform="translate(-69.21 45.8) rotate(-16.14)"/></g><g class="cls-46"><rect class="cls-47" x="327.55" y="93.03" width="13.37" height="20.51" transform="translate(-68.78 48.77) rotate(-16.13)"/></g><g class="cls-48"><rect class="cls-49" x="338.58" y="92.92" width="14.12" height="20.73" transform="matrix(0.96, -0.28, 0.28, 0.96, -68.33, 51.94)"/></g><g class="cls-50"><rect class="cls-51" x="350.11" y="93.75" width="8.39" height="19.07" transform="translate(-67.99 54.35) rotate(-16.13)"/></g><g class="cls-52"><rect class="cls-53" x="356.59" y="92.75" width="13.54" height="21.09" transform="translate(-67.64 56.87) rotate(-16.14)"/></g><g class="cls-54"><rect class="cls-55" x="367.9" y="92.75" width="13.54" height="21.09" transform="matrix(0.96, -0.28, 0.28, 0.96, -67.19, 60.02)"/></g><g class="cls-56"><rect class="cls-57" x="113.56" y="57.36" width="28.46" height="32.9" transform="translate(-72.48 38.38) rotate(-34.97)"/></g><g class="cls-58"><rect class="cls-59" x="130.21" y="56.98" width="29.54" height="33.65" transform="translate(-69.37 48.23) rotate(-34.97)"/></g><g class="cls-60"><rect class="cls-61" x="148.76" y="57.36" width="28.46" height="32.9" transform="translate(-66.12 58.55) rotate(-34.97)"/></g><g class="cls-62"><rect class="cls-63" x="165.53" y="56.61" width="30.62" height="34.4" transform="translate(-62.9 68.78) rotate(-34.97)"/></g><g class="cls-64"><rect class="cls-65" x="183.12" y="56.59" width="30.1" height="34.45" transform="translate(-59.78 78.71) rotate(-34.97)"/></g><g class="cls-66"><rect class="cls-67" x="199.88" y="53.24" width="28.85" height="35.52" transform="translate(-55.25 87.45) rotate(-34.97)"/></g><g class="cls-68"><rect class="cls-69" x="209.69" y="56.2" width="31.77" height="35.21" transform="translate(-54.83 94.42) rotate(-34.97)"/></g><g class="cls-70"><rect class="cls-71" x="114.82" y="91.96" width="21.64" height="21.54" transform="translate(-88.94 72.19) rotate(-45.51)"/></g><g class="cls-72"><rect class="cls-73" x="235.41" y="59.49" width="4.92" height="5.28" transform="translate(-45.91 99.36) rotate(-34.97)"/></g><g class="cls-74"><rect class="cls-75" x="232.64" y="56.9" width="10.46" height="10.46" transform="translate(-45.92 99.35) rotate(-34.96)"/></g></svg>